<svg xmlns="http://www.w3.org/2000/svg" width="2768.156" height="2044.736" viewBox="0 0 2768.156 2044.736">
  <g id="Group_26" data-name="Group 26" transform="translate(3827.489 2971.398)">
    <path id="Path_21" data-name="Path 21" d="M2478.02,930.52c77.57,118.56.62,391.61-47.11,495.63-83.1,181.09-233.56,304.56-417.48,366.88-241.01,81.68-490.25,73.8-741.78,33.69-385.83-61.53-890.82-355.16-1037.13-745.81-21.98-96.36-27.82-175.1,30.39-297.12C356.65,621.52,465.45,517.02,643.8,406.07c163.31-113.34,613.11,116.67,779.23,289.9,87.34,91.09-9.1,180.84-103.01,198.49C1100.01,949,935.65,904.09,821.5,769.36q4.845,79.395,9.67,158.79c160.01-44.55,315.09-24.1,465.88,52.92,380.59-64.76,780.88-57.29,1180.96-50.53Z" transform="translate(-3827.45 -2974.477)" fill="#f9d3ba" stroke="#7d513b" stroke-miterlimit="22.926" stroke-width="76.98" fill-rule="evenodd"/>
    <path id="Path_22" data-name="Path 22" d="M262.07,1019.32C232.81,840.01,340.26,667.46,603.3,478.19c-361.82,566.57-157.25,979.69,1164.52,1330.68-360.48,30.89-643.78-22.33-947.8-181.35-288.51-151.46-502.33-366.27-557.95-608.2Z" transform="translate(-3827.45 -2974.477)" fill="#f3b091" fill-rule="evenodd"/>
    <g id="Group_13" data-name="Group 13" transform="translate(-3827.45 -2974.477)">
      <path id="Path_23" data-name="Path 23" d="M1209.62,986.96l19.71-73.57c438.58,19.41,856.52,37.9,1295.1,57.31,24.77,208.46-262.13,258.79-375.42,121-98.84,139.64-338.24,116.14-434.03-18.29-145.52,81.28-453.33,133.94-505.36-86.46Z" fill="rgba(51,44,43,0.19)" fill-rule="evenodd"/>
      <g id="Group_12" data-name="Group 12">
        <g id="Group_9" data-name="Group 9">
          <path id="Path_24" data-name="Path 24" d="M2099.9,439.15q12.03,243.06,24.06,486.1c18.7,62.47,35.4,88.37,96.84,115.36,67.38,29.6,135.06,28.81,205.71,15.04,252.6-49.23,182.45-566.37,48.72-641.76-74.83-42.19-170.44-75.97-238.18-57.74-60.08,20.78-109.14,33.35-137.14,83Z" fill="#f9d3ba" stroke="#7d513b" stroke-miterlimit="22.926" stroke-width="76.98" fill-rule="evenodd"/>
          <path id="Path_25" data-name="Path 25" d="M2316.85,1025.44c-82.56-8.46-141.79-37.01-154.83-107.3l-10.26-199.59c144.45,156.09,225.34,163.44,387.76,170.67-36.17,105.55-85.12,142.32-222.68,136.23Z" fill="#f3b091" fill-rule="evenodd"/>
        </g>
        <g id="Group_10" data-name="Group 10">
          <path id="Path_26" data-name="Path 26" d="M1679.9,271.16c.8,32.88.73,49.26,1.53,82.14,0,181.24,48.44,380.86,48.44,562.11,171.86,428.9,634.45,66.05,450.31-550.87-48.04-160.95-436.33-306.64-500.27-93.37Z" fill="#f9d3ba" stroke="#7d513b" stroke-miterlimit="22.926" stroke-width="76.98" fill-rule="evenodd"/>
          <path id="Path_27" data-name="Path 27" d="M1848.38,203.72c-45.04,318.84-12.83,564.2,67.91,857.34-52.29-10.87-102.41-48.39-147-154.26-2.54-94.23-18.59-193.64-27.1-293.72-.71-8.26-12.69-105.94-12.9-113.9-14.16-107.81-5.26-115.11-10.74-222.41,19.36-54.62,65.88-74.88,129.83-73.06Z" fill="#f3b091" fill-rule="evenodd"/>
        </g>
        <g id="Group_11" data-name="Group 11">
          <path id="Path_28" data-name="Path 28" d="M1229.33,913.39c-.28-1.75,92.12-9.65,153.34-49.56,53.1-34.62,91.26-85.93,68.12-124.77-45.81-76.89-153.41-148.61-227.53-200.41-29.08-20.32-66.43-41.85-68.19-52.66-5.92-36.38-9.67-75.01-15.65-111.41-40.29-322.7,457.53-378.3,517.89-139.38,120.74,477.85,77.18,663.45,12.16,738.42-96.6,111.39-408.81,131.92-440.15-60.23Z" fill="#f9d3ba" stroke="#7d513b" stroke-miterlimit="22.926" stroke-width="76.98" fill-rule="evenodd"/>
          <path id="Path_29" data-name="Path 29" d="M1347.44,137.3c-46.98,239.89-23.62,282.68,16.88,455.63-28.66-23.55-126-90.84-172.79-123.45-12.74-96-65.48-304.74,155.9-332.18Z" fill="#f3b091" fill-rule="evenodd"/>
          <path id="Path_30" data-name="Path 30" d="M1277.56,943.04c48.48-9.01,94.22-24.59,134.39-52.86q31.02,63.855,62.04,127.72c-82.96,4.9-155.19-8.49-196.42-74.85Z" fill="#f7b496" fill-rule="evenodd"/>
        </g>
      </g>
    </g>
    <g id="Group_14" data-name="Group 14" transform="translate(-3815.45 -2942.477)">
      <path id="Path_31" data-name="Path 31" d="M633.04,375.13C631.48,170.58,774.07,46.51,901.36,39c106.27-6.26,219.81,43.74,265.73,146,85.71,190.84,66.77,345.41,42.15,312.3-79-106.18-488.68-218.09-576.2-122.18Z" fill="#f9d3ba" stroke="#7d513b" stroke-miterlimit="22.926" stroke-width="76.98" fill-rule="evenodd"/>
      <path id="Path_32" data-name="Path 32" d="M837.24,93.1c-48.68,19.52-138.46,79.79-160.62,215.84,49.7-10.82,106.9-10.88,160.66-3.35C816.69,212.46,814,181.5,837.24,93.1Z" fill="#f3b091" fill-rule="evenodd"/>
    </g>
    <path id="Path_33" data-name="Path 33" d="M697.16,1817.99c440.48,178.72,872.42,273.68,1391.54,98.16" transform="translate(-3827.45 -2974.477)" fill="none" stroke="#f7b496" stroke-miterlimit="22.926" stroke-width="76.98" fill-rule="evenodd"/>
    <path id="Path_34" data-name="Path 34" d="M381.08,400.64C131.11,588.63,36.21,737.42,38.49,1051.18" transform="translate(-3827.45 -2974.477)" fill="none" stroke="#f7b496" stroke-miterlimit="22.926" stroke-width="76.98" fill-rule="evenodd"/>
    <path id="Path_35" data-name="Path 35" d="M1687.75,91.82c184.5-108.32,408.19-26.44,504.26,103.92" transform="translate(-3827.45 -2974.477)" fill="none" stroke="#f7b496" stroke-miterlimit="22.926" stroke-width="76.98" fill-rule="evenodd"/>
    <path id="Path_36" data-name="Path 36" d="M2595.27,335.41c144.47,167.14,170.83,450.82,86.61,656.31" transform="translate(-3827.45 -2974.477)" fill="none" stroke="#f7b496" stroke-miterlimit="22.926" stroke-width="76.98" fill-rule="evenodd"/>
  </g>
</svg>
